<?xml version="1.0" encoding="UTF-8" standalone="no"?>
<svg
   xmlns:dc="http://purl.org/dc/elements/1.1/"
   xmlns:cc="http://creativecommons.org/ns#"
   xmlns:rdf="http://www.w3.org/1999/02/22-rdf-syntax-ns#"
   xmlns:svg="http://www.w3.org/2000/svg"
   xmlns="http://www.w3.org/2000/svg"
   xmlns:sodipodi="http://sodipodi.sourceforge.net/DTD/sodipodi-0.dtd"
   xmlns:inkscape="http://www.inkscape.org/namespaces/inkscape"
   id="svg8"
   version="1.1"
   viewBox="0 0 6.3499999 6.3499999"
   height="6.3499999mm"
   width="6.3499999mm"
   sodipodi:docname="icon-white.svg"
   inkscape:version="0.92.4 (5da689c313, 2019-01-14)">
  <sodipodi:namedview
     pagecolor="#ffffff"
     bordercolor="#666666"
     borderopacity="1"
     objecttolerance="10"
     gridtolerance="10"
     guidetolerance="10"
     inkscape:pageopacity="0"
     inkscape:pageshadow="2"
     inkscape:window-width="1920"
     inkscape:window-height="1053"
     id="namedview8"
     showgrid="false"
     inkscape:zoom="13.906434"
     inkscape:cx="3.6579503"
     inkscape:cy="13.719601"
     inkscape:window-x="0"
     inkscape:window-y="27"
     inkscape:window-maximized="1"
     inkscape:current-layer="layer1" />
  <defs
     id="defs2" />
  <metadata
     id="metadata5">
    <rdf:RDF>
      <cc:Work
         rdf:about="">
        <dc:format>image/svg+xml</dc:format>
        <dc:type
           rdf:resource="http://purl.org/dc/dcmitype/StillImage" />
        <dc:title />
      </cc:Work>
    </rdf:RDF>
  </metadata>
  <g
     inkscape:groupmode="layer"
     id="layer2"
     inkscape:label="Layer 1" />
  <g
     transform="translate(-87.539286,-84.426191)"
     id="layer1">
    <path
       id="path815"
       d="m 87.539286,84.426191 h 6.35 v 6.35 h -6.35 z"
       style="fill:none;stroke-width:0.26458332" />
    <path
       style="stroke-width:0.26458332;fill:#ffffff"
       id="path817"
       d="m 90.714286,84.960649 c -1.457854,0 -2.640542,1.182688 -2.640542,2.640542 0,1.457854 1.182688,2.640542 2.640542,2.640542 1.457854,0 2.640542,-1.182688 2.640542,-2.640542 0,-1.457854 -1.182688,-2.640542 -2.640542,-2.640542 z m -0.137583,4.757209 v -1.656292 h -0.92075 l 1.322916,-2.577042 v 1.656292 h 0.886354 z" />
    <path
       style="opacity:1;vector-effect:none;fill:#ffd5d5;fill-opacity:1;stroke:none;stroke-width:0.1016949px;stroke-linecap:butt;stroke-linejoin:miter;stroke-miterlimit:4;stroke-dasharray:none;stroke-dashoffset:0;stroke-opacity:1"
       d="M 10.058947,21.753957 C 6.0588221,20.849468 3.064533,17.879079 2.2665194,14.023729 2.0517403,12.986091 2.0463123,11.020082 2.2555432,10.048162 3.073561,6.2483004 5.7960625,3.3765018 9.5389829,2.3653109 10.277442,2.165808 10.640467,2.132606 12.030508,2.1374375 c 1.793327,0.00623 2.497202,0.1403596 3.924926,0.7479101 1.5299,0.6510312 3.288992,2.0977499 4.251226,3.4963081 0.535931,0.7789481 1.206521,2.2911387 1.452453,3.2752989 0.320403,1.2821734 0.322205,3.3767214 0.004,4.6489084 -0.891498,3.564221 -3.58452,6.335273 -7.093272,7.298793 -1.056225,0.290045 -3.526815,0.371816 -4.510894,0.149301 z m 6.288041,-11.467516 c 0.0031,-0.04195 -0.74887,-0.07627 -1.670942,-0.07627 H 12.999549 L 12.972656,7.1154881 12.945763,4.0208068 10.479661,8.8292257 C 9.1233049,11.473856 8.0135592,13.66731 8.0135592,13.703568 c 0,0.03626 0.7779661,0.06592 1.7288135,0.06592 h 1.7288133 l 0.0056,3.127119 0.0056,3.127119 2.429569,-4.830509 c 1.336263,-2.65678 2.432069,-4.86483 2.435124,-4.906779 z"
       id="path4525"
       inkscape:connector-curvature="0"
       transform="matrix(0.26458333,0,0,0.26458333,87.539286,84.426191)" />
    <path
       style="opacity:1;vector-effect:none;fill:#ffd5d5;fill-opacity:1;stroke:none;stroke-width:0.1016949px;stroke-linecap:butt;stroke-linejoin:miter;stroke-miterlimit:4;stroke-dasharray:none;stroke-dashoffset:0;stroke-opacity:1"
       d="M 10.555932,21.803479 C 9.5106091,21.672088 8.7939604,21.435156 7.5559321,20.811644 4.9230154,19.485622 3.1035093,17.232841 2.3610053,14.379661 2.1501981,13.569604 2.0652638,11.430796 2.2078016,10.521701 2.668254,7.5849735 4.3721763,5.0453832 6.9073639,3.5172958 7.4934654,3.1640225 8.9065058,2.5251348 9.3231142,2.425046 9.4138762,2.403241 9.6940677,2.334285 9.9457626,2.2718117 c 0.2903904,-0.072078 1.1451564,-0.097609 2.3389834,-0.069863 1.717887,0.039926 1.952911,0.067946 2.704891,0.3224772 2.415439,0.8175811 4.695448,2.7337234 5.733797,4.8187411 0.949344,1.9062914 1.169828,2.935807 1.089981,5.089458 -0.03037,0.819175 -0.0731,1.558053 -0.09495,1.641951 -0.921621,3.53856 -3.181165,6.085637 -6.484565,7.309742 -1.008848,0.373838 -3.361455,0.584639 -4.677966,0.419161 z m 5.791056,-11.517038 c 0.0031,-0.04195 -0.749531,-0.07627 -1.672412,-0.07627 H 12.99661 V 7.1389829 c 0,-1.7178259 -0.03848,-3.0286137 -0.08733,-2.9745762 -0.100652,0.1113498 -4.8957228,9.4638323 -4.8957228,9.5487973 0,0.03096 0.7779661,0.05629 1.7288135,0.05629 h 1.7288133 l 0.0056,3.127119 0.0056,3.127119 2.429569,-4.830509 c 1.336263,-2.65678 2.432069,-4.86483 2.435124,-4.906779 z"
       id="path4527"
       inkscape:connector-curvature="0"
       transform="matrix(0.26458333,0,0,0.26458333,87.539286,84.426191)" />
    <path
       style="opacity:1;vector-effect:none;fill:#ffd5d5;fill-opacity:1;stroke:none;stroke-width:0.1016949px;stroke-linecap:butt;stroke-linejoin:miter;stroke-miterlimit:4;stroke-dasharray:none;stroke-dashoffset:0;stroke-opacity:1"
       d="M 10.257476,21.786486 C 9.3125395,21.651479 7.7014579,20.986436 6.6119071,20.281621 4.5154113,18.925426 3.0837169,17.001766 2.400616,14.623223 2.199352,13.922427 2.1699761,13.587587 2.1695858,11.98983 2.1691672,10.276276 2.1869286,10.103092 2.4475778,9.2792362 3.4238119,6.1935717 5.4607173,3.9687385 8.4203389,2.7554194 9.7677994,2.2030178 10.180598,2.144765 12.344932,2.201594 14.435477,2.2564855 14.894103,2.3525244 16.2,3.008866 c 1.565754,0.7869453 3.283959,2.2612031 4.091456,3.5105564 0.50655,0.7837324 1.220356,2.4958257 1.4063,3.3730734 0.167035,0.7880342 0.191767,3.1298302 0.04275,4.0479792 -0.234102,1.442413 -1.285072,3.476916 -2.458163,4.758594 -1.167647,1.275729 -3.057774,2.468576 -4.511621,2.847255 -1.203226,0.313401 -3.241492,0.421862 -4.513248,0.240162 z m 3.699514,-6.683521 c 1.311493,-2.622522 2.356504,-4.79625 2.322246,-4.830508 -0.03426,-0.03426 -0.786863,-0.06229 -1.672457,-0.06229 H 12.99661 l -0.0053,-3.0254233 c -0.0051,-2.8757301 -0.01391,-3.0132061 -0.178,-2.7785321 -0.174279,0.2492445 -4.7997508,9.2263164 -4.7997508,9.3153104 0,0.02638 0.7779661,0.04797 1.7288135,0.04797 h 1.7288133 v 3.050848 c 0,1.677966 0.02279,3.050847 0.05064,3.050847 0.02785,0 1.123675,-2.145699 2.435168,-4.768221 z"
       id="path4529"
       inkscape:connector-curvature="0"
       transform="matrix(0.26458333,0,0,0.26458333,87.539286,84.426191)" />
    <path
       style="opacity:1;vector-effect:none;fill:#000000;fill-opacity:1;stroke:none;stroke-width:0.1016949px;stroke-linecap:butt;stroke-linejoin:miter;stroke-miterlimit:4;stroke-dasharray:none;stroke-dashoffset:0;stroke-opacity:1"
       d="M 10.226156,21.799963 C 8.4459884,21.500271 6.0593121,20.174259 4.685459,18.721613 3.6578644,17.635083 2.7769319,16.032259 2.3438663,14.461171 2.0863723,13.527027 2.0918486,10.432217 2.3526482,9.4983049 2.5930174,8.6375526 3.2974483,7.1506954 3.8512311,6.3352141 5.0840627,4.5197892 7.2427511,2.9946338 9.442085,2.3851672 c 0.616654,-0.1708835 1.050284,-0.2087563 2.38299,-0.2081278 1.91061,9.01e-4 2.648493,0.1029656 3.713415,0.5136426 1.535637,0.5922045 3.583695,2.1768246 4.533173,3.5073997 0.490993,0.6880626 1.039728,1.8058538 1.444899,2.9433026 0.223983,0.6287924 0.259589,0.9251727 0.301939,2.5133757 0.05488,2.058192 -0.05207,2.753215 -0.62664,4.071975 -1.208369,2.773484 -3.534526,4.938418 -6.184542,5.755898 -1.172617,0.361729 -3.571636,0.520955 -4.781163,0.31733 z m 4.167808,-7.59398 c 1.030803,-2.081116 1.844711,-3.83154 1.808686,-3.88983 -0.04086,-0.06611 -0.656264,-0.105984 -1.635771,-0.105984 H 12.99661 V 7.3288135 c 0,-1.5847458 -0.03107,-2.9124256 -0.06904,-2.9503997 C 12.8896,4.3404398 12.703759,4.5959483 12.514599,4.9462105 11.6776,6.496057 8.1152581,13.545152 8.1152581,13.651544 c 0,0.0847 0.4729746,0.117947 1.6779661,0.117947 H 11.47119 l 0.0014,3.076271 0.0014,3.076272 0.522883,-0.966102 c 0.287586,-0.531356 1.366267,-2.668833 2.39707,-4.749949 z"
       id="path4531"
       inkscape:connector-curvature="0"
       transform="matrix(0.26458333,0,0,0.26458333,87.539286,84.426191)" />
    <path
       style="opacity:1;vector-effect:none;fill:#ffd5d5;fill-opacity:1;stroke:none;stroke-width:0.1016949px;stroke-linecap:butt;stroke-linejoin:miter;stroke-miterlimit:4;stroke-dasharray:none;stroke-dashoffset:0;stroke-opacity:1"
       d="M 10.098305,21.734276 C 7.856073,21.232442 5.2405602,19.541637 3.998824,17.791251 3.465599,17.039602 2.836835,15.791269 2.5109633,14.837288 2.2855955,14.17753 2.2677966,13.972827 2.2677966,12.040678 c 0,-2.4024007 0.053534,-2.6641049 0.88302,-4.3167211 C 3.8240692,6.3826106 4.1430441,5.9286234 5.0321455,5.0463181 6.2175529,3.8699719 7.698375,2.9822359 9.3214908,2.4749048 10.287227,2.1730483 13.473399,2.1704783 14.638325,2.4706162 c 1.502877,0.3872098 3.099023,1.3781652 4.510827,2.800514 0.960343,0.967515 1.347713,1.5685409 2.020451,3.1348395 0.523741,1.2193969 0.597317,1.7542203 0.548375,3.9862113 -0.04542,2.071212 -0.08734,2.280083 -0.730582,3.639782 -0.786496,1.662514 -2.372342,3.47092 -3.84822,4.388281 -1.629384,1.012777 -3.133604,1.3911 -5.452497,1.371349 -0.761741,-0.0065 -1.47651,-0.03228 -1.588374,-0.05732 z m 3.51099,-5.838354 c 1.330281,-2.654213 2.641552,-5.426005 2.641552,-5.583763 0,-0.06394 -0.607036,-0.10199 -1.627118,-0.10199 H 12.99661 V 7.2610168 c 0,-1.6220338 -0.03757,-2.9491525 -0.0835,-2.9491525 -0.04592,0 -0.293092,0.3775424 -0.549262,0.8389831 -0.86986,1.5668854 -4.2485939,8.2910036 -4.2485939,8.4552516 0,0.143458 0.2047175,0.163392 1.6779661,0.163392 h 1.6779658 l 0.0017,3.127119 0.0017,3.127119 0.466173,-0.864407 c 0.256395,-0.475424 1.007237,-1.943953 1.668536,-3.2634 z"
       id="path4533"
       inkscape:connector-curvature="0"
       transform="matrix(0.26458333,0,0,0.26458333,87.539286,84.426191)" />
    <path
       style="opacity:1;vector-effect:none;fill:#ffd5d5;fill-opacity:1;stroke:none;stroke-width:0.1016949px;stroke-linecap:butt;stroke-linejoin:miter;stroke-miterlimit:4;stroke-dasharray:none;stroke-dashoffset:0;stroke-opacity:1"
       d="M 9.3348224,21.466142 C 7.0896425,20.667393 4.9757875,19.152054 3.9369756,17.596637 3.3950498,16.785209 2.6584283,15.234669 2.468561,14.50572 2.2895701,13.818527 2.2603256,10.682696 2.4241705,9.7457957 2.5777548,8.8675674 3.6971606,6.6539834 4.4299499,5.7794403 5.5920099,4.3925868 7.5139207,3.1003649 9.16889,2.593152 c 0.89851,-0.2753743 2.884376,-0.37909 4.35982,-0.2277 1.301191,0.1335103 2.309098,0.4900822 3.434002,1.2148616 1.82644,1.1767823 2.980789,2.4276813 3.818916,4.1383304 0.781293,1.5946471 0.85905,1.9773296 0.85905,4.227825 0,2.253003 -0.07459,2.719078 -0.616503,3.852442 -1.332635,2.787069 -3.609676,4.844875 -6.200988,5.603956 -0.640467,0.187613 -1.07592,0.228231 -2.792679,0.260492 -1.920621,0.03609 -2.070756,0.02511 -2.6956856,-0.197217 z m 4.2191286,-5.357826 c 1.418676,-2.830203 2.696896,-5.556126 2.696896,-5.751378 0,-0.121779 -0.277038,-0.146769 -1.627118,-0.146769 H 12.99661 V 7.2525423 c 0,-2.1826595 -0.03062,-2.9474191 -0.116876,-2.9186685 -0.06428,0.021427 -0.299231,0.3570203 -0.522111,0.7457626 -0.763105,1.3309955 -4.2423689,8.2965696 -4.2423689,8.4933306 0,0.186296 0.087335,0.196524 1.6779661,0.196524 h 1.6779658 l 0.0017,3.177966 0.0017,3.177966 0.466165,-0.864406 c 0.25639,-0.475424 0.98233,-1.894139 1.6132,-3.152701 z"
       id="path4535"
       inkscape:connector-curvature="0"
       transform="matrix(0.26458333,0,0,0.26458333,87.539286,84.426191)" />
    <path
       style="opacity:1;vector-effect:none;fill:#000000;fill-opacity:1;stroke:none;stroke-width:0.1016949px;stroke-linecap:butt;stroke-linejoin:miter;stroke-miterlimit:4;stroke-dasharray:none;stroke-dashoffset:0;stroke-opacity:1"
       d="M 9.2519669,21.448752 C 6.8560217,20.613599 4.5539307,18.795571 3.5196278,16.92176 3.2572876,16.446487 2.8925309,15.691525 2.7090575,15.244068 2.378355,14.437546 2.375142,14.413525 2.3376106,12.467177 2.2908223,10.040774 2.3817718,9.4621743 3.0210567,8.1192511 3.9266447,6.2169146 4.6486531,5.3023926 6.1210625,4.1926716 7.8022849,2.9255731 9.2027275,2.4082712 11.207162,2.313945 c 2.663608,-0.1253462 4.171936,0.2258486 5.917501,1.3778142 1.793327,1.1834845 2.878134,2.3897164 3.71298,4.1285797 0.724272,1.5085527 0.803035,1.9132481 0.803035,4.1261301 0,2.241708 -0.07544,2.720836 -0.601767,3.82173 -1.070677,2.239504 -2.67388,3.975 -4.582722,4.960878 -1.474203,0.761396 -2.079701,0.88968 -4.425681,0.937648 -1.972547,0.04033 -2.0563595,0.03376 -2.7785411,-0.217973 z m 3.6800511,-4.119939 c 1.401877,-2.741708 3.173164,-6.45042 3.275534,-6.85829 l 0.06535,-0.260354 H 14.634753 12.99661 V 7.317866 c 0,-1.6690949 -0.03992,-2.9169725 -0.09438,-2.9506344 C 12.765296,4.2826027 11.999672,5.6888299 9.9310029,9.8245026 8.92439,11.836918 8.1254954,13.547801 8.1556816,13.626466 c 0.044005,0.114674 0.3780553,0.143025 1.6851944,0.143025 h 1.63031 v 3.122034 c 0,1.899763 0.03658,3.084212 0.09344,3.025424 0.05139,-0.05314 0.666718,-1.217797 1.367392,-2.588136 z"
       id="path4537"
       inkscape:connector-curvature="0"
       transform="matrix(0.26458333,0,0,0.26458333,87.539286,84.426191)" />
  </g>
</svg>
